<?xml version="1.0" encoding="UTF-8" standalone="no"?>
<!DOCTYPE svg PUBLIC "-//W3C//DTD SVG 1.1//EN" "http://www.w3.org/Graphics/SVG/1.1/DTD/svg11.dtd">
<svg width="100%" height="100%" viewBox="0 0 591 591" version="1.1" xmlns="http://www.w3.org/2000/svg" xmlns:xlink="http://www.w3.org/1999/xlink" xml:space="preserve" xmlns:serif="http://www.serif.com/" style="fill-rule:evenodd;clip-rule:evenodd;stroke-linejoin:round;stroke-miterlimit:2;">
    <g transform="matrix(20.8333,0,0,20.8333,45.2756,45.2756)">
        <path d="M15.969,-1.89L8.031,-1.89C6.465,-1.89 4.866,-1.173 3.689,0.004C2.512,1.181 1.795,2.78 1.795,4.346C1.795,4.346 1.795,23.055 1.795,23.055C1.795,24.135 2.409,25.121 3.378,25.598C4.347,26.075 5.502,25.96 6.358,25.302C6.358,25.302 12,20.962 12,20.962C14.178,22.638 17.642,25.302 17.642,25.302C18.498,25.96 19.653,26.075 20.622,25.598C21.591,25.121 22.205,24.135 22.205,23.055C22.205,23.055 22.205,4.346 22.205,4.346C22.205,2.78 21.488,1.181 20.311,0.004C19.134,-1.173 17.535,-1.89 15.969,-1.89ZM16.535,17.298L13.728,15.139C12.709,14.355 11.291,14.355 10.272,15.139L7.465,17.298L7.465,4.346C7.465,4.212 7.597,4.114 7.698,4.013C7.799,3.912 7.897,3.78 8.031,3.78L15.969,3.78C16.103,3.78 16.201,3.912 16.302,4.013C16.403,4.114 16.535,4.212 16.535,4.346L16.535,17.298Z" style="fill:rgb(29,35,42);"/>
    </g>
    <g transform="matrix(20.8333,0,0,20.8333,45.2756,45.2756)">
        <path d="M15.969,-0.472L8.031,-0.472C6.823,-0.472 5.599,0.099 4.691,1.006C3.784,1.914 3.213,3.138 3.213,4.346C3.213,4.346 3.213,23.055 3.213,23.055C3.213,23.595 3.519,24.088 4.004,24.327C4.488,24.565 5.066,24.508 5.494,24.179L12,19.174C13.947,20.671 18.506,24.179 18.506,24.179C18.934,24.508 19.512,24.565 19.996,24.327C20.481,24.088 20.787,23.595 20.787,23.055L20.787,4.346C20.787,3.138 20.216,1.914 19.309,1.006C18.401,0.099 17.177,-0.472 15.969,-0.472ZM15.969,2.362C16.46,2.362 16.935,2.642 17.304,3.011C17.673,3.38 17.953,3.855 17.953,4.346C17.953,4.346 17.953,20.177 17.953,20.177C17.953,20.177 12.864,16.262 12.864,16.262C12.355,15.871 11.645,15.871 11.136,16.262L6.047,20.177C6.047,20.177 6.047,4.346 6.047,4.346C6.047,3.855 6.327,3.38 6.696,3.011C7.065,2.642 7.54,2.362 8.031,2.362L15.969,2.362Z" style="fill:rgb(116,128,255);"/>
    </g>
</svg>
