<?xml version="1.0" standalone="no"?>
<!DOCTYPE svg PUBLIC "-//W3C//DTD SVG 20010904//EN"
 "http://www.w3.org/TR/2001/REC-SVG-20010904/DTD/svg10.dtd">
<svg version="1.0" xmlns="http://www.w3.org/2000/svg"
 width="700.000000pt" height="700.000000pt" viewBox="0 0 700.000000 700.000000"
 preserveAspectRatio="xMidYMid meet">
<metadata>
Created by potrace 1.14, written by Peter Selinger 2001-2017
</metadata>
<g transform="translate(0.000000,700.000000) scale(0.100000,-0.100000)"
fill="#000000" stroke="none">
<path d="M2340 6919 c-25 -5 -70 -14 -100 -20 -30 -5 -97 -24 -149 -40 -483
-156 -876 -548 -1040 -1037 -17 -51 -33 -107 -36 -125 -3 -18 -8 -39 -10 -47
-2 -8 -8 -37 -12 -65 -4 -27 -8 -1152 -8 -2500 l0 -2450 26 -72 c40 -108 93
-195 162 -266 75 -77 113 -106 192 -145 204 -101 429 -101 630 0 62 32 109 67
675 502 184 142 397 306 474 364 76 59 144 112 150 117 6 6 55 43 109 84 l97
74 23 -19 c12 -10 24 -21 27 -24 3 -3 30 -23 60 -45 30 -22 60 -44 66 -50 6
-5 73 -57 148 -115 76 -58 193 -148 260 -200 68 -52 138 -106 156 -120 18 -14
135 -104 260 -200 125 -96 242 -186 260 -200 139 -107 194 -145 255 -174 149
-71 302 -88 458 -52 207 48 390 197 477 390 24 53 36 87 57 171 9 32 9 4794 1
4865 -26 219 -90 414 -200 605 -184 318 -495 582 -834 710 -75 28 -233 73
-291 82 -62 10 -2294 12 -2343 2z m2204 -1430 c25 -23 52 -51 58 -63 10 -16
13 -388 14 -1616 0 -877 -1 -1598 -3 -1602 -2 -4 -63 39 -136 95 -73 56 -159
122 -192 147 -33 25 -62 48 -65 51 -3 3 -41 32 -85 65 -44 32 -82 61 -85 65
-3 3 -41 32 -85 66 -114 86 -226 142 -310 157 -16 3 -41 8 -55 11 -14 3 -63 6
-110 6 -128 -1 -275 -44 -370 -110 -45 -32 -224 -164 -230 -172 -3 -3 -86 -67
-185 -143 -186 -142 -213 -163 -279 -215 -22 -17 -41 -30 -43 -27 -3 2 -5
2622 -3 3156 0 49 4 60 33 90 18 19 45 45 61 58 l29 22 997 0 997 0 47 -41z"/>
</g>
</svg>
