<?xml version="1.0" standalone="no"?>
<!DOCTYPE svg PUBLIC "-//W3C//DTD SVG 20010904//EN"
 "http://www.w3.org/TR/2001/REC-SVG-20010904/DTD/svg10.dtd">
<svg version="1.0" xmlns="http://www.w3.org/2000/svg"
 width="700.000000pt" height="700.000000pt" viewBox="0 0 700.000000 700.000000"
 preserveAspectRatio="xMidYMid meet">
<metadata>
Created by potrace 1.14, written by Peter Selinger 2001-2017
</metadata>
<g transform="translate(0.000000,700.000000) scale(0.100000,-0.100000)"
fill="#000000" stroke="none">
<path d="M2370 6569 c-93 -17 -107 -21 -191 -49 -299 -101 -572 -340 -723
-632 -39 -75 -89 -207 -101 -269 -24 -113 -26 -323 -23 -2554 l3 -2380 22 -49
c60 -129 182 -209 318 -208 114 0 173 31 374 190 19 15 87 68 152 117 133 102
857 658 1012 779 56 43 143 109 194 148 l92 69 63 -48 c35 -27 239 -184 453
-348 215 -165 397 -305 405 -312 32 -26 520 -401 625 -480 141 -106 210 -130
327 -112 118 19 226 106 269 217 l22 57 2 2370 c1 1881 -2 2388 -12 2458 -67
464 -446 882 -918 1014 l-100 28 -1110 1 c-610 1 -1130 -2 -1155 -7z m2271
-731 c132 -65 255 -198 302 -327 21 -56 21 -57 22 -2038 1 -1091 -1 -1983 -3
-1983 -2 0 -72 53 -155 117 -84 65 -179 138 -212 163 -33 25 -62 47 -65 51 -3
3 -61 48 -130 100 -69 52 -127 96 -130 100 -3 3 -54 43 -115 89 -60 46 -186
143 -280 214 -93 72 -181 139 -196 148 -45 29 -122 49 -184 49 -95 0 -158 -29
-308 -144 -73 -56 -144 -111 -159 -122 -48 -36 -738 -568 -867 -668 l-126 -98
-3 1968 c-3 1807 -1 1973 14 2031 33 126 151 265 288 342 91 50 67 49 1187 47
l1045 -2 75 -37z"/>
</g>
</svg>
